<svg width="154" height="154" viewBox="0 0 154 154" fill="none" xmlns="http://www.w3.org/2000/svg">
<path d="M104.288 148.914C91.592 153.731 77.8472 155.102 64.4502 152.887C51.0532 150.671 38.4814 144.949 28.0125 136.3L35.4163 127.338C44.303 134.679 54.9747 139.536 66.3469 141.417C77.7191 143.298 89.3865 142.134 100.163 138.045L104.288 148.914Z" fill="#00ADE8"/>
<path d="M152.836 89.8509C150.546 103.363 144.688 116.018 135.867 126.507C127.046 136.995 115.583 144.937 102.663 149.509L98.7669 138.501C109.725 134.623 119.448 127.887 126.929 118.991C134.411 110.094 139.38 99.3606 141.322 87.8998L152.836 89.8509Z" fill="url(#paint0_linear_0_1)"/>
<path d="M126.335 17.9891C136.85 26.7795 144.824 38.2195 149.434 51.1256C154.044 64.0317 155.123 77.9352 152.557 91.3977L141.247 89.2424C143.428 77.7952 142.511 65.9729 138.591 54.9988C134.671 44.0246 127.89 34.2971 118.95 26.8225L126.335 17.9891Z" fill="#C3C5CB"/>
<path d="M40.1243 9.49767C53.9433 1.94857 69.7464 -1.17733 85.3989 0.542215C101.051 2.26176 115.799 8.7439 127.649 19.113L120.07 27.7752C109.993 18.9577 97.4522 13.4456 84.142 11.9833C70.8317 10.5211 57.3934 13.1792 45.6423 19.5987L40.1243 9.49767Z" fill="url(#paint1_linear_0_1)"/>
<path d="M1.10762 89.5192C-1.53626 73.4925 0.961495 57.0401 8.24286 42.5201C15.5242 28.0002 27.2154 16.1581 41.6408 8.69108L46.9609 18.9689C34.706 25.3124 24.7739 35.3727 18.5881 47.708C12.4023 60.0432 10.2804 74.0202 12.5264 87.6355L1.10762 89.5192Z" fill="#FC7871"/>
<path d="M29.0055 137.107C13.7174 124.9 3.65531 107.326 0.867092 87.962L12.3073 86.3147C14.6765 102.769 23.2266 117.702 36.2174 128.075L29.0055 137.107Z" fill="#78D15C"/>
<defs>
<linearGradient id="paint0_linear_0_1" x1="137.493" y1="29.4933" x2="-11.6279" y2="11.3317" gradientUnits="userSpaceOnUse">
<stop stop-color="#00E8A2"/>
<stop offset="1" stop-color="#00ADE8"/>
</linearGradient>
<linearGradient id="paint1_linear_0_1" x1="137.493" y1="29.4933" x2="-11.6279" y2="11.3317" gradientUnits="userSpaceOnUse">
<stop stop-color="#00E8A2"/>
<stop offset="1" stop-color="#00ADE8"/>
</linearGradient>
</defs>
</svg>
